<svg width="301" height="442" viewBox="0 0 301 442" fill="none" xmlns="http://www.w3.org/2000/svg">
<path d="M126.863 0C120.188 0.349356 105.231 5.00131 91.1208 12.0804C77.0108 19.2514 27.2108 51.815 26.2424 132.259C27.4874 208.474 92.7635 338.03 136.857 379.658C136.857 379.658 65.2524 251.831 60.0995 140.386C54.8774 28.9598 126.863 0 126.863 0ZM173.187 0C173.187 0 245.103 28.9598 239.95 140.386C234.78 251.831 163.192 379.658 163.192 379.658C207.234 338.03 272.545 208.474 273.79 132.259C272.804 51.815 223.022 19.2514 208.912 12.0804C194.802 5.00131 179.844 0.349356 173.187 0ZM149.325 0.349356C145.962 0.31428 142.65 1.2279 139.728 2.99711C113.254 18.2033 96.7406 73.2177 101.375 159.233C104.574 218.844 118.822 293.294 143.255 379.658H155.359C179.792 293.294 194.093 218.918 197.292 159.306C201.926 73.3096 185.395 18.2033 158.921 2.99711C155.999 1.2279 152.687 0.31428 149.325 0.349356ZM64.0247 19.6007C64.0247 19.6007 -13.3382 53.4883 2.01681 151.234C17.3026 249.054 98.6427 353.401 122.816 375.558C131.514 383.961 22.9224 255.159 12.3918 142.059C7.35994 99.3459 19.1356 51.9622 64.0247 19.6007ZM236.353 19.6007C281.225 51.9622 293.001 99.3459 287.969 142.059C277.456 255.159 168.864 383.961 177.545 375.558C201.718 353.401 283.076 249.054 298.361 151.234C313.716 53.4883 236.353 19.6007 236.353 19.6007ZM118.511 401.686L126.793 441.292H171.735L180.173 401.686H118.511Z" fill="#3CFF2A"/>
</svg>
