<svg width="307" height="300" viewBox="0 0 307 300" fill="none" xmlns="http://www.w3.org/2000/svg">
<path d="M125.998 104.107C121.265 102.184 116.148 101.415 110.904 101.543C107.578 101.543 104.636 101.543 102.205 101.671C99.6471 101.543 97.8562 101.671 96.9608 101.799V144.878C98.7517 145.006 100.415 145.134 101.95 145.134H108.729C113.718 145.134 118.707 144.365 123.44 142.827C127.533 141.673 131.115 139.237 133.929 136.031C136.615 132.826 137.894 128.467 137.894 122.826C138.022 118.851 136.999 114.877 134.952 111.415C132.819 108.086 129.682 105.526 125.998 104.107ZM252.635 0H54.3646C24.3042 0 0 24.36 0 54.4895V245.511C0 275.64 24.3042 300 54.3646 300H252.635C282.696 300 307 275.64 307 245.511V54.4895C307 24.36 282.696 0 252.635 0ZM158.092 149.365C152.988 156.545 145.825 161.93 137.51 165.007C128.812 168.212 119.218 169.366 108.729 169.366C105.659 169.366 103.612 169.366 102.333 169.238C101.054 169.11 99.2633 169.11 96.8329 169.11V210.253C96.9608 211.15 96.3213 211.932 95.4258 212.06H70.61C69.5867 212.06 69.075 211.535 69.075 210.381V78.4649C69.075 77.5674 69.4587 77.0546 70.3542 77.0546C72.5287 77.0546 74.5754 77.0546 77.5175 76.9264C80.5875 76.7982 83.7854 76.7982 87.2392 76.6699C90.6929 76.5417 94.4025 76.5417 98.3679 76.4135C102.333 76.2853 106.171 76.2853 110.008 76.2853C120.497 76.2853 129.196 77.5674 136.359 80.2598C142.755 82.4394 148.639 86.0293 153.5 90.7731C157.593 94.8759 160.791 99.8761 162.838 105.389C164.744 110.774 165.767 116.287 165.767 122.056C165.784 133.083 163.226 142.186 158.092 149.365ZM248.798 199.239C245.216 204.368 240.215 208.329 234.471 210.663C228.203 213.342 220.528 214.74 211.306 214.74C205.434 214.74 199.665 214.24 193.922 213.086C189.445 212.304 184.967 210.906 180.874 208.983C179.979 208.483 179.326 207.586 179.454 206.56V184.251C179.454 183.88 179.595 183.354 179.979 183.098C180.35 182.841 180.746 182.969 181.13 183.226C186.119 186.175 191.363 188.239 196.992 189.508C201.84 190.79 206.956 191.431 212.086 191.431C216.947 191.431 220.4 190.777 222.703 189.623C224.75 188.726 226.157 186.546 226.157 184.239C226.157 182.431 225.133 180.777 223.087 179.11C221.04 177.456 216.832 175.533 210.564 173.071C204.04 170.764 198.041 167.687 192.399 163.853C188.39 160.988 185.065 157.265 182.665 152.955C180.633 148.898 179.627 144.403 179.736 139.865C179.736 134.352 181.271 129.095 184.098 124.351C187.296 119.223 192.016 115.12 197.516 112.556C203.515 109.492 211.062 108.082 220.145 108.082C225.389 108.082 230.762 108.466 236.006 109.235C239.844 109.748 243.553 110.774 247.007 112.184C247.506 112.312 248.03 112.825 248.286 113.338C248.414 113.851 248.542 114.364 248.542 114.877V135.775C248.542 136.288 248.286 136.801 247.902 137.057C246.751 137.314 246.112 137.314 245.6 137.057C241.762 135.006 237.669 133.595 233.32 132.698C228.587 131.672 223.854 131.031 218.993 131.031C216.435 130.903 213.749 131.288 211.306 131.929C209.655 132.313 208.236 133.211 207.34 134.493C206.701 135.519 206.317 136.801 206.317 137.955C206.317 139.109 206.828 140.262 207.609 141.288C208.76 142.698 210.282 143.852 211.958 144.75C214.887 146.288 217.97 147.699 221.027 148.981C227.947 151.289 234.599 154.494 240.739 158.34C244.96 161.02 248.414 164.622 250.832 168.982C252.878 173.059 253.902 177.572 253.774 182.174C253.915 188.213 252.124 194.226 248.798 199.239Z" fill="#7C5FFE"/>
</svg>
